Coordinates
nRows=14
nColumns=24

# SIMM Motion File Header:
name Coordinates
datacolumns 24
datarows 14
otherdata 1
range 0.31333000000000000000 0.32633000000000001000
endheader
time	pelvis_tx	pelvis_ty	pelvis_tz	pelvis_tilt	pelvis_list	pelvis_rotation	hip_flexion_r	hip_adduction_r	hip_rotation_r	knee_angle_r	ankle_angle_r	subtalar_angle_r	mtp_angle_r	hip_flexion_l	hip_adduction_l	hip_rotation_l	knee_angle_l	ankle_angle_l	subtalar_angle_l	mtp_angle_l	lumbar_extension	lumbar_bending	lumbar_rotation
      0.31333000000000000000	     -1.47217070340076490000	      0.68157549619144553000	      0.25599958909163339000	      9.56004091011348930000	      0.24141937234850638000	      6.56741434809421690000	      8.32509247648962260000	      3.46310628812496370000	    -11.61158625745399100000	    -22.73915896053626200000	      5.77338153315470940000	      0.00000000000000481242	      0.00000000000001738578	     -3.27895839055118050000	     -2.30863372797045670000	     -1.91879416767833290000	    -56.81408418826690400000	    -22.68628100548700000000	     -0.00000000000000022231	     -0.00000000000000078633	    -27.63819521083730300000	      6.00807841514123990000	      2.45429802011298510000
      0.31433000000000000000	     -1.47169492756955230000	      0.68170021898704114000	      0.25613096963193882000	      9.56000316199753010000	      0.25778488609238054000	      6.53253109295040080000	      8.25848696724162500000	      3.45689962910959500000	    -11.62943243488629500000	    -22.69284819223856400000	      5.78694394522536640000	      0.00000000000000503570	      0.00000000000001771480	     -3.17801600746843870000	     -2.30962421650830450000	     -1.90484007326950680000	    -56.87378377341401100000	    -22.34353813394726300000	     -0.00000000000000023441	     -0.00000000000000081421	    -27.64901362809325000000	      5.96271469616759560000	      2.50644714533765130000
      0.31533000000000000000	     -1.47121904129848690000	      0.68182922845455363000	      0.25626275430449613000	      9.56356397499381930000	      0.27405977104320350000	      6.49674334884427920000	      8.18734328234608810000	      3.45120593056254550000	    -11.64867204486857100000	    -22.64455367743435900000	      5.78936920152866110000	      0.00000000000000525446	      0.00000000000001804978	     -3.08223729986244250000	     -2.31159286380365850000	     -1.89316110166269680000	    -56.92676013259760000000	    -22.03092076034791400000	     -0.00000000000000023312	     -0.00000000000000089478	    -27.66378766032554300000	      5.91768519072812180000	      2.55896773679036780000
      0.31633000000000000000	     -1.47074300811280280000	      0.68196402273547507000	      0.25639508363528091000	      9.57198284399254010000	      0.29021100939901096000	      6.45973240713738670000	      8.11007442449289680000	      3.44620551017659290000	    -11.66979723576442600000	    -22.59358276104496700000	      5.77674856054138970000	      0.00000000000000546687	      0.00000000000001839341	     -2.99343060403289260000	     -2.31488443064260220000	     -1.88456107695102300000	    -56.97064539860546300000	    -21.75906060108577100000	     -0.00000000000000021357	     -0.00000000000000104722	    -27.68390114973457700000	      5.87310853704560020000	      2.61198822791144010000
      0.31733000000000000000	     -1.47026697492711840000	      0.68209881701639652000	      0.25652741296606563000	      9.58040171299126260000	      0.30636224775481846000	      6.42272146543049430000	      8.03280556663970560000	      3.44120508979064030000	    -11.69092242666028300000	    -22.54261184465557800000	      5.76412791955411840000	      0.00000000000000567927	      0.00000000000001873705	     -2.90462390820334320000	     -2.31817599748154630000	     -1.87596105223934950000	    -57.01453066461331800000	    -21.48720044182363200000	     -0.00000000000000019401	     -0.00000000000000119966	    -27.70401463914361200000	      5.82853188336307860000	      2.66500871903251290000
      0.31833000000000000000	     -1.46979172887229770000	      0.68223440705818461000	      0.25665972338372456000	      9.59052721476895620000	      0.32182923669525842000	      6.38413809053454620000	      7.95410891659731160000	      3.43700466509130240000	    -11.71392082443825800000	    -22.49194966714463800000	      5.74640378784678680000	      0.00000000000000590943	      0.00000000000001910359	     -2.81902716830790200000	     -2.32304074107949490000	     -1.87220344301368140000	    -57.04934777831641700000	    -21.25327247112753100000	     -0.00000000000000017987	     -0.00000000000000136603	    -27.72575302437784800000	      5.78485082991277630000	      2.71784255202601210000
      0.31933000000000000000	     -1.46931654910227080000	      0.68237006411150491000	      0.25679203220869706000	      9.60079643318596790000	      0.33723860455420768000	      6.34542230003269390000	      7.87529203126024500000	      3.43287160854108640000	    -11.73707696616745700000	    -22.44131348873238000000	      5.72824988791742480000	      0.00000000000000614108	      0.00000000000001947207	     -2.73370074085746500000	     -2.32803796289984840000	     -1.86885361669737930000	    -57.08340125710629600000	    -21.02253879432397100000	     -0.00000000000000016619	     -0.00000000000000153358	    -27.74762824313017600000	      5.74124519553160970000	      2.77066066641904430000
      0.32033000000000000000	     -1.46884213141153560000	      0.68250194419769472000	      0.25692374664273893000	      9.60890815033635090000	      0.35219030283955094000	      6.30641048345333650000	      7.79976562970447600000	      3.42889540329759910000	    -11.76022783912648100000	    -22.39297588565815300000	      5.71968313984747390000	      0.00000000000000640083	      0.00000000000001975995	     -2.64594009486817680000	     -2.33330804238247320000	     -1.86722561326389490000	    -57.11722613405469000000	    -20.78542815508058100000	     -0.00000000000000015811	     -0.00000000000000165282	    -27.76692073325577300000	      5.69810546545913170000	      2.82285459089912960000
      0.32133000000000000000	     -1.46836875610553410000	      0.68262865808540862000	      0.25705464805897743000	      9.61406880136145150000	      0.36651599306819860000	      6.26699375748039510000	      7.72874000660616110000	      3.42513374188087650000	    -11.78337150537400100000	    -22.34778231217101700000	      5.72422985758532920000	      0.00000000000000669903	      0.00000000000001993757	     -2.55484988426511750000	     -2.33895134111488900000	     -1.86795274781424880000	    -57.15073832560122500000	    -20.53959500052308200000	     -0.00000000000000015767	     -0.00000000000000170599	    -27.78268052419873500000	      5.65560300705099110000	      2.87419473803209110000
      0.32233000000000001000	     -1.46789538079953230000	      0.68275537197312253000	      0.25718554947521594000	      9.61922945238655200000	      0.38084168329684626000	      6.22757703150745460000	      7.65771438350784630000	      3.42137208046415390000	    -11.80651517162152000000	    -22.30258873868388000000	      5.72877657532318450000	      0.00000000000000699722	      0.00000000000002011520	     -2.46375967366205770000	     -2.34459463984730430000	     -1.86867988236460250000	    -57.18425051714776000000	    -20.29376184596558400000	     -0.00000000000000015724	     -0.00000000000000175916	    -27.79844031514170100000	      5.61310054864285050000	      2.92553488516505220000
      0.32333000000000001000	     -1.46742390922584080000	      0.68287198503194080000	      0.25731419066789518000	      9.61848624478625420000	      0.39430028053294597000	      6.18831977498138210000	      7.59514102318874150000	      3.41766043510808930000	    -11.82886972079581900000	    -22.26266552929761400000	      5.76099893777435490000	      0.00000000000000731853	      0.00000000000002020859	     -2.36554400870615120000	     -2.35029020698211210000	     -1.87214528121173960000	    -57.22095559966285800000	    -20.00715735009008300000	     -0.00000000000000016499	     -0.00000000000000178414	    -27.80723651508581200000	      5.57174185558212720000	      2.97473962331025100000
      0.32433000000000001000	     -1.46695259796666640000	      0.68298774749348878000	      0.25744264152570095000	      9.61724586947003070000	      0.40768585931282036000	      6.14907594747956130000	      7.53327943333145720000	      3.41395300163652490000	    -11.85115781791599700000	    -22.22318614064764500000	      5.79555188399148060000	      0.00000000000000764179	      0.00000000000002029490	     -2.26672830467575050000	     -2.35599017567256030000	     -1.87584127104900840000	    -57.25792955757128800000	    -19.71711947345050900000	     -0.00000000000000017344	     -0.00000000000000180675	    -27.81544630657213400000	      5.53047947973382480000	      3.02376453729698410000
      0.32533000000000001000	     -1.46648292076891210000	      0.68309741429519610000	      0.25756861727799080000	      9.61282910174474910000	      0.42066959524082520000	      6.11044728967508010000	      7.47572507280114170000	      3.41012110296993590000	    -11.87260316412060700000	    -22.18583377681294900000	      5.84422584088288930000	      0.00000000000000796859	      0.00000000000002034287	     -2.16390747714336530000	     -2.36159877956508170000	     -1.88128501797832890000	    -57.29712480853692100000	    -19.39411676931201700000	     -0.00000000000000021904	     -0.00000000000000174229	    -27.81986904127122500000	      5.49028062742446550000	      3.07051929530895680000
      0.32633000000000001000	     -1.46601378825829780000	      0.68320504921028991000	      0.25769376799510862000	      9.60735353654978220000	      0.43351938355154035000	      6.07202368843637790000	      7.41960645537981380000	      3.40624771590500510000	    -11.89376759335335800000	    -22.14919042125001200000	      5.89760680133238950000	      0.00000000000000829659	      0.00000000000002037806	     -2.05975160844365270000	     -2.36717692852496020000	     -1.88731135060499940000	    -57.33706049052163000000	    -19.06012578934056400000	     -0.00000000000000027702	     -0.00000000000000164880	    -27.82302942370790400000	      5.45043628296142120000	      3.11651733466267670000
